<?xml version="1.0" standalone="no"?>
<!DOCTYPE svg PUBLIC "-//W3C//DTD SVG 20010904//EN"
 "http://www.w3.org/TR/2001/REC-SVG-20010904/DTD/svg10.dtd">
<svg version="1.0" xmlns="http://www.w3.org/2000/svg"
 width="786.000000pt" height="786.000000pt" viewBox="0 0 786.000000 786.000000"
 preserveAspectRatio="xMidYMid meet">
<metadata>
Created by potrace 1.14, written by Peter Selinger 2001-2017
</metadata>
<g transform="translate(0.000000,786.000000) scale(0.100000,-0.100000)"
fill="#000000" stroke="none">
<path d="M4146 7814 c-3 -26 -6 -82 -6 -126 l0 -79 43 3 c23 1 56 -2 74 -6 27
-6 32 -4 39 16 l8 23 6 -24 c8 -33 26 -37 35 -9 l8 23 4 -22 c6 -31 19 -29 37
5 14 26 15 26 16 4 0 -28 46 -49 72 -33 11 7 19 7 23 1 8 -13 52 -13 60 0 4 7
11 7 18 2 26 -20 57 -20 71 0 14 20 14 20 21 -1 8 -26 21 -27 34 -3 10 16 10
16 11 0 0 -23 20 -34 31 -17 7 11 9 11 9 -2 0 -22 46 -42 70 -29 10 5 21 15
23 22 4 8 6 7 6 -4 1 -23 21 -34 32 -17 7 10 11 11 17 2 4 -6 20 -15 36 -19
22 -5 32 -3 43 11 12 18 13 17 13 -8 0 -31 11 -35 31 -11 12 14 14 14 26 -2
10 -14 15 -15 28 -4 13 10 15 9 15 -8 0 -28 25 -45 60 -40 16 2 32 0 34 -6 3
-7 11 -3 20 8 16 19 16 19 16 -2 0 -24 35 -38 70 -29 13 3 24 -1 30 -14 12
-22 59 -26 78 -7 9 9 12 6 12 -15 0 -31 6 -33 32 -10 17 15 18 15 18 -5 0 -25
10 -28 28 -10 9 9 12 8 12 -6 0 -13 5 -17 20 -13 15 4 20 0 20 -15 0 -14 5
-18 15 -14 8 3 15 1 15 -5 0 -5 16 -17 36 -25 28 -12 39 -12 50 -3 11 9 14 7
14 -10 0 -23 19 -28 38 -9 9 9 12 7 12 -10 0 -25 10 -28 28 -10 9 9 12 7 12
-9 0 -30 29 -56 57 -50 15 3 23 -1 23 -9 0 -16 26 -19 35 -5 3 5 16 -1 30 -15
13 -13 33 -24 43 -24 11 0 27 -11 36 -25 10 -15 26 -25 40 -25 17 0 26 -7 30
-26 6 -21 11 -25 32 -21 20 3 27 -1 34 -19 7 -17 17 -24 36 -24 17 0 28 -6 31
-19 5 -21 54 -38 73 -26 7 4 10 0 8 -11 -2 -11 2 -18 10 -16 6 1 12 -7 12 -18
0 -23 4 -24 32 -9 19 10 20 9 14 -16 -8 -33 9 -58 36 -49 14 4 21 0 25 -15 3
-12 9 -21 13 -21 13 0 78 -69 85 -89 3 -11 17 -22 30 -25 14 -4 25 -13 25 -21
0 -8 11 -25 25 -37 14 -12 25 -32 25 -45 0 -16 6 -23 20 -23 13 0 20 -7 20
-19 0 -30 11 -51 26 -51 12 0 250 114 263 126 11 10 -13 56 -34 66 -14 6 -24
16 -23 22 1 6 -4 26 -12 44 -13 29 -18 32 -45 26 -24 -5 -28 -4 -17 7 15 16
16 49 1 49 -6 0 -20 -5 -31 -11 -18 -10 -20 -9 -15 5 4 9 10 23 14 32 5 14 1
16 -25 12 -28 -4 -31 -2 -27 16 6 26 -13 52 -49 66 -15 6 -30 19 -33 31 -4 12
-17 22 -35 26 -18 3 -27 11 -24 18 6 16 -25 45 -47 45 -10 0 -14 5 -11 15 7
16 -24 21 -42 7 -5 -4 -6 -3 -1 3 8 11 10 45 1 45 -3 0 -14 -5 -25 -11 -18 -9
-19 -8 -10 9 14 26 -12 62 -45 62 -17 0 -24 5 -24 20 0 22 -20 26 -38 8 -9 -9
-12 -7 -12 12 -1 31 -43 64 -70 55 -16 -5 -20 -2 -20 14 0 25 -8 26 -38 5 -21
-14 -22 -14 -22 5 0 23 -19 28 -37 10 -9 -9 -10 -7 -6 10 8 30 -14 51 -53 51
-24 0 -34 5 -34 15 0 19 -9 19 -32 -2 -17 -15 -18 -15 -18 14 0 32 -36 61 -63
50 -9 -3 -17 2 -20 13 -6 23 -62 36 -82 20 -12 -10 -15 -9 -15 10 0 17 -4 21
-20 17 -14 -3 -20 0 -20 10 0 11 -7 14 -25 11 -17 -4 -25 -1 -25 8 0 19 -20
18 -42 -3 -17 -15 -18 -15 -11 17 5 28 4 32 -10 27 -10 -4 -17 -2 -17 4 0 17
-70 42 -85 29 -9 -8 -14 -5 -18 12 -6 21 -7 21 -27 3 -20 -18 -20 -18 -20 3 0
26 -25 29 -39 5 -9 -16 -10 -16 -11 5 0 31 -41 49 -75 34 -22 -10 -25 -9 -25
8 0 23 -10 26 -28 8 -9 -9 -12 -8 -12 5 0 18 -41 33 -66 23 -8 -3 -26 1 -40
10 -16 11 -35 14 -54 10 -22 -4 -30 -2 -30 8 0 18 -26 27 -55 20 -14 -3 -33 1
-48 11 -18 11 -36 14 -60 10 -26 -5 -36 -3 -40 9 -9 23 -53 20 -71 -5 l-14
-21 -4 23 c-5 33 -25 34 -42 2 l-15 -28 -1 28 c0 31 -6 33 -32 10 -16 -14 -18
-15 -18 0 0 9 -6 19 -12 24 -19 11 -118 11 -118 -1 0 -6 -5 -5 -12 2 -9 9 -71
12 -219 12 l-206 0 -7 -46z"/>
<path d="M3625 7493 c-11 -2 -36 -10 -55 -18 -20 -7 -48 -11 -63 -8 -22 4 -28
1 -37 -22 l-11 -28 -22 22 c-29 27 -80 27 -132 1 -30 -16 -50 -18 -91 -14 -45
6 -59 3 -98 -20 -33 -19 -58 -26 -98 -26 -39 0 -64 -7 -93 -25 -28 -17 -55
-24 -90 -25 -38 0 -60 -7 -95 -30 -25 -16 -53 -30 -62 -30 -23 0 -128 -40
-128 -48 0 -4 23 -58 52 -119 36 -75 58 -113 69 -113 9 0 44 18 77 40 33 22
68 40 78 40 17 0 64 13 112 31 16 6 22 17 22 39 l0 31 22 -21 c32 -30 57 -26
70 12 l11 31 19 -22 c22 -29 45 -21 59 19 l11 30 18 -22 c23 -29 84 -29 132
-1 26 17 45 19 94 16 44 -4 69 -1 92 11 23 12 46 14 90 10 77 -8 110 0 124 32
l12 25 23 -26 c19 -20 28 -23 43 -15 11 6 23 18 29 27 8 16 12 15 31 -10 28
-35 46 -34 69 4 l19 30 10 -29 c9 -26 15 -30 67 -36 41 -5 65 -2 86 8 24 12
30 12 40 0 15 -18 33 -18 49 1 17 20 27 19 35 -4 8 -27 128 -40 154 -17 17 16
19 15 35 -9 21 -32 39 -32 66 2 18 23 23 25 31 13 27 -46 27 -46 61 -27 20 12
34 15 36 8 13 -39 39 -53 107 -57 38 -2 82 -9 98 -15 23 -10 31 -9 46 5 23 21
28 20 35 -8 5 -19 18 -28 61 -41 39 -11 61 -13 74 -6 14 8 23 5 41 -14 39 -42
148 -57 151 -21 1 6 4 -2 8 -19 7 -35 34 -44 60 -21 17 16 19 15 25 -15 6 -32
19 -35 68 -15 12 6 17 2 20 -15 4 -32 33 -47 58 -31 27 17 30 16 30 -12 0 -35
25 -52 56 -37 32 14 31 15 38 -14 4 -15 23 -34 49 -50 46 -26 77 -31 106 -16
15 8 16 5 13 -25 -5 -40 16 -53 59 -37 22 9 26 8 22 -3 -3 -8 -2 -25 1 -39 7
-27 33 -33 67 -15 17 9 19 7 19 -18 0 -42 70 -102 119 -102 16 0 21 -6 21 -26
0 -24 3 -26 35 -22 31 4 35 1 35 -19 0 -25 69 -95 110 -113 15 -6 34 -29 45
-53 14 -29 32 -48 60 -63 25 -12 49 -36 62 -60 12 -22 40 -55 62 -72 22 -18
49 -52 60 -76 12 -27 31 -50 48 -60 27 -13 53 -52 53 -77 0 -9 32 -57 60 -92
4 -4 19 -3 34 3 27 10 27 9 12 -12 -31 -43 -16 -68 40 -68 21 0 23 -3 14 -19
-17 -33 -11 -49 20 -56 34 -8 33 -5 20 -41 -12 -31 6 -88 41 -132 10 -14 19
-36 19 -49 0 -17 8 -27 29 -36 26 -11 28 -14 15 -32 -21 -28 -17 -64 12 -115
18 -31 26 -62 28 -100 1 -39 8 -65 24 -87 16 -23 22 -45 22 -83 0 -36 7 -63
21 -86 17 -28 20 -43 14 -83 -5 -39 -2 -60 15 -97 19 -43 20 -53 8 -96 -8 -33
-9 -57 -2 -76 9 -25 17 -29 139 -54 72 -15 136 -27 143 -28 17 0 16 94 -3 130
-10 20 -13 46 -9 87 6 66 -15 120 -54 139 l-23 11 26 17 c36 23 32 53 -11 78
l-35 21 21 22 c29 31 22 58 -17 70 l-31 10 25 29 c28 33 26 63 -13 138 -13 26
-24 61 -24 76 0 38 -18 88 -47 130 -13 19 -23 44 -23 56 0 30 -29 109 -43 118
-7 4 -25 8 -40 8 l-28 0 21 28 c12 15 18 35 15 44 -7 17 -60 32 -77 22 -6 -4
0 7 13 25 30 40 18 65 -34 69 -35 3 -36 4 -22 26 13 19 13 27 -3 66 -28 72
-41 90 -71 96 -24 5 -27 10 -23 36 5 33 -9 48 -45 48 -20 0 -22 4 -17 30 5 23
-1 39 -30 79 -36 49 -53 61 -85 61 -14 0 -17 6 -13 27 6 33 -20 54 -58 47 -25
-6 -27 -4 -22 25 6 42 -13 64 -50 56 -26 -6 -28 -4 -28 23 0 41 -39 95 -80
108 -18 6 -43 24 -56 39 -18 23 -26 26 -53 20 -29 -6 -31 -5 -31 24 0 46 -89
119 -130 106 -12 -4 -20 -2 -20 5 0 45 -102 116 -148 103 -19 -5 -22 -1 -22
25 0 37 -20 55 -52 47 -21 -6 -26 -2 -34 27 -8 26 -15 33 -35 32 -13 -1 -32
-4 -41 -9 -15 -6 -18 -2 -18 25 0 31 -1 31 -42 28 -41 -3 -43 -1 -46 25 -4 33
-27 45 -55 28 -16 -10 -21 -10 -28 1 -5 7 -9 18 -9 25 0 6 -25 25 -56 42 -51
30 -57 31 -84 18 -28 -14 -28 -14 -35 19 -3 19 -11 35 -18 35 -24 3 -42 -3
-59 -18 -15 -14 -17 -12 -20 18 -4 47 -30 59 -66 32 l-30 -22 -5 27 c-5 20
-18 32 -56 50 -54 24 -78 27 -100 13 -10 -6 -20 -3 -32 12 -17 21 -19 21 -47
6 -28 -16 -29 -16 -39 11 -11 30 -68 50 -144 50 -25 0 -55 8 -76 21 -29 18
-45 21 -95 16 -48 -4 -73 -1 -112 15 -45 18 -57 18 -102 8 -42 -10 -55 -10
-80 3 -44 22 -85 28 -122 18 -25 -7 -44 -6 -70 4 -50 18 -106 27 -126 19 -9
-3 -23 -18 -30 -32 l-14 -26 -16 32 c-21 40 -49 41 -77 3 l-22 -30 -30 32 -29
32 -27 -32 -27 -32 -26 29 c-25 29 -45 34 -93 23z"/>
<path d="M3756 7114 c-13 -13 -19 -14 -32 -4 -11 10 -21 10 -39 2 -15 -7 -26
-8 -30 -2 -9 14 -53 12 -58 -2 -4 -10 -7 -10 -18 0 -16 15 -55 16 -64 2 -5 -8
-11 -8 -19 0 -19 15 -76 1 -76 -19 -1 -14 -2 -14 -11 2 -13 22 -29 13 -30 -16
l0 -22 -11 23 c-15 30 -28 28 -29 -5 0 -28 -1 -28 -11 -5 -13 25 -17 26 -55
10 -15 -6 -32 -10 -36 -9 -5 1 -11 -7 -14 -18 -5 -20 -5 -20 -22 1 -17 20 -19
20 -49 5 -17 -8 -40 -13 -51 -10 -11 3 -27 -2 -36 -11 -10 -10 -25 -13 -44
-10 -23 5 -32 2 -40 -15 -9 -16 -18 -19 -41 -14 -24 4 -30 2 -30 -12 0 -14 -5
-16 -26 -11 -45 12 -55 -7 -32 -67 75 -202 78 -208 108 -172 8 9 21 13 32 9
24 -7 48 12 48 40 1 19 2 19 11 4 15 -26 29 -22 29 9 0 26 1 26 15 7 14 -18
15 -18 26 -1 8 14 14 16 25 6 11 -9 21 -9 42 1 15 7 35 12 45 11 10 -1 27 5
36 13 10 9 26 16 37 15 42 -4 54 1 54 24 1 20 2 20 11 5 14 -25 29 -22 30 5
l0 22 11 -23 c14 -28 30 -24 39 9 5 16 7 18 8 7 1 -20 45 -26 56 -8 3 6 15 10
26 10 13 0 19 7 20 23 1 20 2 19 11 -5 7 -22 16 -28 38 -28 17 0 30 7 34 17 6
14 9 15 15 4 11 -17 31 -6 31 17 1 11 6 8 16 -11 18 -32 34 -27 34 11 1 27 1
27 15 -5 15 -34 42 -44 51 -18 4 11 11 12 24 5 14 -8 19 -5 25 13 6 19 8 19
12 5 5 -21 63 -26 63 -5 1 7 6 5 14 -5 18 -24 42 -23 59 2 14 21 15 21 21 -5
8 -31 24 -32 35 -3 l8 22 6 -24 c4 -15 11 -21 21 -17 8 3 17 1 19 -6 3 -7 10
-1 15 13 l11 25 7 -22 c8 -27 19 -29 32 -7 8 15 10 15 15 0 7 -19 38 -21 55
-4 9 9 13 7 18 -5 9 -24 21 -21 30 5 l7 23 8 -23 c10 -26 26 -21 39 12 8 19 9
17 9 -10 1 -29 4 -32 39 -36 21 -3 40 0 44 6 6 8 8 8 8 0 0 -15 47 -35 66 -27
10 4 20 0 26 -10 10 -19 43 -23 53 -6 5 7 16 3 31 -12 19 -17 26 -20 38 -10
11 10 17 7 30 -11 14 -19 19 -21 35 -11 16 10 22 9 34 -10 15 -21 16 -22 46
-5 30 16 31 16 31 -2 0 -26 15 -25 34 2 l16 22 0 -29 c1 -29 1 -29 15 -11 15
19 15 19 15 -1 0 -21 35 -42 47 -29 4 3 12 1 20 -6 7 -6 16 -8 20 -4 3 3 11
-4 18 -17 6 -13 20 -22 33 -21 13 0 24 -7 28 -18 3 -12 15 -18 33 -18 16 0 34
-7 42 -16 7 -8 21 -13 30 -11 10 3 26 -4 35 -14 9 -10 25 -19 34 -19 10 0 24
-9 31 -19 8 -11 24 -22 35 -25 19 -6 25 4 62 101 41 111 42 147 4 141 -9 -1
-29 6 -45 16 -15 10 -36 16 -47 13 -16 -4 -20 0 -20 20 0 26 0 26 -21 7 -21
-19 -21 -19 -19 1 4 37 0 39 -26 14 l-26 -24 4 30 c3 28 1 30 -34 33 -20 2
-42 10 -48 18 -7 8 -24 14 -39 14 -15 0 -34 9 -44 20 -19 23 -47 26 -65 8 -9
-9 -12 -7 -12 10 0 26 -7 28 -32 5 -17 -15 -18 -15 -18 5 0 26 -7 27 -32 5
-17 -15 -18 -15 -18 5 0 15 -8 23 -27 28 -16 3 -36 8 -46 11 -11 3 -24 -3 -32
-14 -14 -17 -14 -17 -15 4 0 27 -42 42 -65 23 -12 -10 -15 -9 -15 9 0 29 -17
26 -34 -6 l-15 -28 -1 28 c0 27 -29 41 -31 15 0 -7 -5 -2 -10 11 -8 20 -14 23
-44 18 -19 -3 -35 -2 -35 2 0 14 -90 12 -91 -1 0 -7 -4 -3 -9 10 -12 29 -35
28 -65 -3 l-25 -24 0 29 c0 35 -15 39 -31 8 -11 -21 -13 -21 -19 -4 -8 23 -50
32 -62 14 -6 -10 -10 -10 -17 1 -8 12 -12 12 -25 2 -11 -9 -16 -10 -16 -2 0 6
-16 11 -35 11 -28 0 -38 -5 -45 -22 l-9 -23 0 22 c-1 30 -20 39 -36 17 -13
-18 -14 -18 -15 -1 0 22 -16 22 -28 0 -9 -14 -10 -14 -17 6 -6 19 -12 22 -52
18 -24 -2 -48 -9 -53 -16 -4 -7 -9 -9 -11 -3 -8 19 -46 23 -63 6z"/>
<path d="M2240 6652 c0 -15 -5 -19 -21 -15 -14 4 -22 0 -25 -15 -4 -14 -11
-18 -27 -14 -16 4 -19 2 -14 -11 4 -11 2 -14 -9 -10 -9 3 -14 -2 -14 -16 0
-18 -3 -20 -19 -11 -30 15 -40 12 -47 -14 -3 -15 -14 -26 -27 -28 -15 -2 -21
-9 -19 -20 2 -12 -2 -16 -13 -12 -19 8 -48 -15 -41 -31 3 -9 -2 -11 -16 -7
-18 4 -19 3 -8 -19 10 -20 10 -22 -1 -11 -17 16 -29 15 -29 -2 0 -9 -7 -12
-21 -9 -15 4 -22 0 -26 -16 -3 -11 -10 -21 -15 -21 -6 0 -7 -7 -4 -16 4 -11 1
-14 -13 -9 -23 7 -45 -18 -38 -44 3 -15 0 -17 -16 -13 -16 4 -19 2 -14 -11 4
-12 2 -14 -10 -10 -13 5 -15 1 -9 -21 5 -19 3 -26 -4 -21 -17 11 -60 -4 -60
-20 0 -8 -7 -15 -15 -15 -18 0 -19 -12 -3 -28 9 -9 7 -12 -9 -12 -23 0 -48
-24 -39 -38 3 -6 -4 -12 -15 -15 -16 -4 -20 -11 -16 -26 3 -12 1 -19 -4 -15
-5 3 -9 0 -9 -5 0 -6 -7 -11 -15 -11 -18 0 -19 -12 -4 -27 9 -9 6 -10 -11 -6
-19 5 -21 3 -15 -15 5 -17 3 -21 -9 -16 -18 7 -22 -16 -6 -32 6 -6 0 -10 -18
-9 -24 0 -27 -3 -26 -32 1 -25 -2 -30 -14 -26 -11 5 -14 2 -9 -10 4 -11 1 -17
-8 -17 -8 0 -15 -6 -15 -13 0 -7 -9 -18 -20 -25 -11 -7 -20 -19 -20 -26 0 -8
-5 -16 -11 -18 -9 -3 -9 -9 -1 -25 10 -18 9 -20 -13 -15 -19 3 -25 -1 -31 -22
-3 -14 -13 -26 -20 -26 -8 0 -19 -11 -24 -25 -5 -14 -16 -25 -25 -25 -9 0 -20
-11 -24 -24 -5 -13 -19 -26 -30 -29 -12 -3 -21 -12 -21 -21 0 -9 -5 -16 -11
-16 -17 0 -60 -50 -54 -61 4 -5 1 -9 -5 -9 -7 0 -10 -6 -7 -14 4 -10 -2 -16
-16 -18 -12 -2 -21 -9 -19 -17 2 -8 -3 -18 -9 -22 -10 -6 -10 -11 2 -25 12
-16 12 -17 -3 -12 -16 7 -48 -19 -48 -38 0 -5 -8 -17 -17 -26 -39 -37 -53 -55
-53 -67 0 -6 -11 -16 -25 -21 -14 -5 -25 -16 -25 -24 0 -7 -9 -16 -20 -19 -38
-10 -20 -34 74 -100 99 -71 125 -80 133 -47 3 11 12 20 19 20 8 0 20 11 26 25
6 14 15 25 21 25 5 0 7 7 3 15 -3 8 -2 14 2 14 19 -3 23 2 13 15 -10 12 -9 13
7 9 15 -3 27 7 51 42 17 25 31 49 31 53 0 4 9 13 21 20 13 9 19 20 16 32 -3
13 0 17 9 13 17 -6 18 9 3 24 -9 9 -7 10 10 6 14 -4 21 -1 21 9 0 8 9 23 20
33 12 10 19 24 16 31 -3 7 0 15 7 17 9 3 9 7 0 18 -10 12 -7 15 15 14 22 0 27
4 26 22 0 13 2 21 4 18 7 -7 33 46 27 55 -3 4 4 10 15 13 12 3 20 14 20 26 0
12 6 21 15 21 18 0 19 12 3 29 -11 11 -9 12 7 7 22 -6 51 26 40 44 -4 6 4 10
16 10 17 0 20 5 17 25 -3 13 -1 22 4 19 13 -8 40 24 32 38 -5 7 -2 9 8 5 21
-8 30 3 17 20 -9 10 -8 13 5 13 23 0 65 40 59 56 -3 8 0 14 7 14 7 0 10 7 6
16 -4 12 -2 15 9 10 9 -3 15 0 15 9 0 9 6 12 16 8 10 -4 17 1 21 16 3 11 10
21 15 21 6 0 8 7 4 15 -4 10 1 15 14 15 11 0 27 11 36 25 9 14 23 25 30 25 8
0 19 11 24 25 5 14 16 25 25 25 8 0 15 7 15 15 0 9 11 20 25 25 15 6 25 17 25
30 0 13 7 20 19 20 11 0 23 9 26 20 3 11 11 20 16 20 6 0 7 9 4 22 -6 17 -4
20 9 15 19 -8 20 -3 5 26 -12 21 -11 21 8 5 11 -10 25 -18 32 -18 6 0 15 8 18
18 10 25 29 42 48 42 9 0 19 8 22 18 3 14 11 18 29 14 19 -3 24 0 24 18 0 17
4 20 19 15 15 -4 20 0 23 17 2 17 8 22 26 20 15 -2 22 2 22 13 0 11 5 15 14
12 8 -3 19 0 24 6 15 18 -88 191 -116 195 -16 3 -22 -2 -22 -16z"/>
<path d="M3841 6606 c-19 -7 -39 -21 -45 -32 -6 -10 -12 -21 -13 -23 -2 -2
-12 8 -24 22 -26 34 -61 35 -87 2 -17 -22 -21 -23 -33 -9 -33 40 -80 37 -94
-7 l-7 -21 -22 21 c-33 31 -71 28 -86 -9 l-12 -30 -28 20 c-38 27 -47 25 -65
-10 -16 -30 -29 -38 -39 -21 -10 16 -58 19 -105 6 -67 -17 -87 -30 -101 -64
l-12 -31 -25 20 c-45 35 -83 17 -83 -39 0 -22 -24 -29 -35 -11 -3 6 -19 10
-35 10 -25 0 -31 -5 -41 -40 -14 -45 -13 -44 -38 -28 -40 25 -154 -31 -181
-89 -12 -26 -19 -31 -38 -26 -28 7 -49 -10 -57 -46 -5 -23 -10 -27 -30 -23
-33 6 -104 -37 -149 -90 -20 -23 -58 -53 -84 -67 -37 -21 -52 -37 -74 -81 -14
-30 -38 -64 -52 -75 -14 -11 -39 -30 -55 -43 -16 -12 -39 -44 -52 -71 -14 -33
-36 -59 -66 -80 -32 -23 -51 -47 -68 -86 -14 -30 -40 -71 -58 -92 -42 -47 -87
-118 -87 -137 0 -7 7 -19 15 -26 24 -20 18 -30 -19 -30 -42 0 -60 -21 -52 -60
5 -27 3 -30 -22 -30 -43 0 -54 -13 -50 -56 3 -36 1 -39 -25 -42 -34 -4 -92
-77 -101 -127 -4 -21 -17 -41 -31 -51 -19 -13 -23 -21 -18 -50 5 -32 4 -34
-24 -34 -31 0 -75 -44 -118 -119 -11 -19 -40 -49 -65 -66 -25 -17 -54 -49 -66
-71 -16 -31 -31 -43 -70 -57 -52 -20 -94 -52 -94 -73 0 -17 -43 -39 -91 -48
-20 -4 -54 -20 -75 -36 -40 -33 -50 -36 -133 -44 -29 -3 -55 -7 -56 -8 -1 -2
1 -59 4 -128 l6 -125 58 2 c37 1 78 11 114 27 30 15 69 26 85 26 35 0 145 56
158 80 6 10 10 28 10 38 0 18 3 19 34 10 48 -15 63 -6 73 44 9 43 9 43 53 43
l45 0 3 45 3 45 45 -4 c43 -3 47 -1 94 50 85 91 107 113 138 136 16 12 40 44
52 70 12 27 41 68 64 93 51 54 81 119 72 154 -6 23 -4 26 23 26 48 0 61 33 36
92 -5 14 0 17 31 20 47 4 63 26 47 68 -11 30 -11 30 21 30 26 0 39 8 63 38 41
51 53 76 53 109 0 23 6 31 31 40 29 11 31 15 27 53 -3 38 -2 40 24 40 32 0 51
17 98 84 27 41 31 52 22 71 -10 22 -9 24 26 27 36 3 37 4 36 44 0 37 1 40 25
37 39 -5 56 11 53 51 -3 35 -2 36 34 36 28 0 48 9 80 36 24 19 44 41 44 48 0
18 43 56 63 56 13 0 17 9 17 35 l0 35 48 0 c53 0 140 42 157 75 7 15 21 21 54
22 60 3 135 49 139 86 3 26 4 27 32 12 43 -22 60 -18 73 15 12 31 21 37 32 20
9 -14 48 -13 63 2 7 7 12 20 12 30 0 17 2 17 25 2 31 -20 63 -10 71 22 7 28
13 29 40 9 29 -22 53 -18 64 11 8 21 14 24 33 17 24 -9 92 -8 145 2 22 4 39
16 52 37 l18 30 17 -26 c23 -35 58 -34 75 2 8 15 16 29 17 31 2 2 12 -8 24
-23 27 -35 57 -31 84 10 21 31 22 31 31 10 14 -31 131 -46 181 -22 33 16 37
16 54 0 16 -14 24 -15 44 -6 14 7 28 19 32 27 4 13 10 9 24 -14 23 -37 80 -55
152 -46 46 6 56 3 86 -19 29 -21 46 -26 97 -26 50 0 73 -6 119 -30 34 -18 72
-30 95 -30 27 0 53 -10 90 -36 32 -22 70 -38 101 -43 27 -5 60 -17 72 -29 25
-24 124 -72 148 -72 9 0 28 9 43 21 l26 20 0 -26 c0 -62 36 -82 83 -45 l25 20
6 -36 c8 -42 26 -51 58 -30 24 16 24 15 20 -19 -5 -42 24 -86 79 -120 21 -14
46 -39 54 -56 12 -22 22 -29 38 -27 33 4 48 -10 41 -38 -7 -29 33 -93 83 -131
17 -13 42 -46 54 -71 12 -26 42 -68 66 -94 31 -34 43 -55 43 -78 0 -33 22 -84
42 -97 29 -18 48 -53 58 -103 5 -29 24 -73 40 -98 19 -29 30 -58 30 -81 0 -40
17 -108 28 -114 4 -3 45 -8 91 -12 l84 -7 -6 50 c-3 28 -17 72 -31 99 -14 26
-30 73 -36 103 -16 83 -49 143 -86 155 -30 10 -30 11 -17 43 17 42 4 68 -37
77 -17 4 -30 10 -28 13 26 50 30 63 25 76 -4 9 -24 18 -46 22 l-40 6 6 48 c7
59 -12 94 -87 162 -27 25 -50 54 -50 64 0 33 -38 83 -80 104 -23 12 -51 38
-67 63 -14 23 -40 59 -57 80 -27 34 -35 38 -68 35 -37 -3 -38 -3 -38 32 0 53
-11 63 -64 59 -41 -4 -46 -2 -46 17 0 28 -37 74 -59 74 -9 0 -26 -6 -36 -14
-18 -13 -21 -12 -31 13 -16 38 -112 85 -157 77 -29 -5 -35 -3 -45 19 -12 27
-58 35 -79 14 -8 -8 -13 -3 -17 18 -6 25 -17 32 -79 56 -55 21 -79 26 -97 19
-22 -8 -26 -6 -37 20 -15 36 -37 44 -71 27 -15 -7 -30 -15 -34 -17 -5 -2 -8 5
-8 16 0 21 -29 52 -49 52 -6 0 -23 -7 -37 -16 -13 -9 -26 -15 -27 -13 -2 2
-10 15 -19 29 -20 32 -104 60 -176 58 -29 -1 -58 4 -64 10 -18 18 -39 15 -64
-9 l-22 -21 -12 22 c-6 12 -27 28 -45 36 -39 16 -162 19 -167 4 -2 -6 -20 -2
-43 10 -44 22 -103 25 -154 6z"/>
<path d="M5751 6521 c-34 -55 -61 -104 -61 -109 0 -11 92 -82 107 -82 5 0 42
-32 82 -71 67 -65 75 -71 109 -67 l37 3 -4 -42 c-3 -45 -4 -45 54 -47 28 -1
30 -3 30 -41 0 -40 0 -40 41 -43 41 -3 42 -3 31 -31 -12 -32 7 -70 74 -148 22
-24 42 -56 45 -71 10 -41 33 -83 69 -125 18 -21 36 -55 40 -75 9 -48 50 -128
70 -136 9 -3 25 -6 36 -6 18 0 18 -1 2 -36 -21 -44 -10 -68 36 -72 30 -3 31
-4 16 -25 -8 -12 -15 -34 -15 -49 0 -21 7 -29 35 -39 32 -12 33 -14 19 -30
-13 -15 -13 -24 1 -86 11 -47 24 -78 40 -93 19 -17 22 -29 18 -56 -5 -29 -2
-36 25 -51 l30 -17 -19 -27 c-17 -25 -18 -30 -3 -99 13 -66 32 -99 57 -100 4
0 -2 -13 -13 -28 -19 -25 -20 -61 -1 -62 3 0 14 -7 24 -15 18 -13 18 -14 -2
-34 -28 -28 -26 -55 5 -80 l25 -20 -22 -30 c-19 -26 -21 -37 -14 -93 4 -34 8
-89 9 -121 1 -47 5 -62 22 -76 l21 -17 -23 -28 c-20 -22 -24 -38 -24 -90 0
-37 6 -70 14 -81 11 -16 10 -23 -10 -53 -20 -28 -24 -48 -24 -105 0 -49 5 -76
15 -87 14 -16 13 -18 -14 -30 -38 -15 -48 -43 -26 -76 9 -14 15 -27 13 -29 -2
-1 -13 -8 -25 -14 -24 -12 -32 -54 -13 -66 17 -11 11 -30 -12 -40 -25 -11 -36
-51 -19 -68 18 -18 13 -26 -24 -41 -38 -16 -43 -31 -21 -61 12 -17 11 -20 -8
-30 -24 -12 -85 -119 -86 -150 0 -11 7 -31 16 -43 14 -21 14 -22 -6 -22 -55 0
-76 -42 -44 -88 17 -24 12 -28 -36 -34 -19 -2 -26 -10 -28 -30 -2 -15 2 -36 7
-47 10 -17 8 -20 -16 -23 -18 -2 -41 -20 -70 -56 -36 -44 -43 -60 -43 -96 0
-38 -3 -45 -25 -50 -27 -7 -34 -41 -15 -77 9 -17 7 -19 -17 -19 -15 0 -33 -4
-39 -8 -22 -15 -64 -80 -79 -121 -9 -26 -33 -61 -59 -85 -25 -22 -47 -53 -50
-68 -3 -16 -9 -40 -12 -55 -3 -14 -25 -45 -49 -67 -25 -24 -54 -65 -68 -97
-14 -31 -43 -73 -65 -93 -22 -21 -50 -59 -62 -84 -12 -25 -53 -80 -91 -121
-70 -76 -76 -88 -59 -121 8 -16 6 -18 -25 -18 -48 0 -57 -9 -53 -53 3 -35 2
-38 -18 -33 -12 3 -32 0 -44 -6 -19 -10 -21 -17 -16 -51 l6 -39 -40 0 c-48 0
-102 -43 -131 -105 -11 -23 -31 -47 -44 -53 -20 -9 -25 -19 -25 -47 0 -33 -1
-34 -31 -28 -26 5 -36 0 -71 -33 -22 -22 -51 -56 -64 -76 -13 -21 -42 -47 -63
-57 -21 -11 -60 -46 -87 -77 -27 -32 -67 -65 -92 -76 -28 -14 -57 -40 -82 -74
-29 -38 -54 -59 -93 -77 -32 -14 -66 -40 -85 -64 -18 -23 -53 -51 -79 -63 -27
-12 -64 -38 -84 -57 l-37 -35 76 -159 c42 -87 80 -159 85 -159 5 0 41 33 80
74 40 40 90 82 112 94 22 11 55 35 74 52 29 27 33 36 28 65 -5 32 -5 33 23 25
42 -12 74 8 80 50 5 32 8 35 36 32 39 -4 57 18 52 62 -4 33 -4 34 33 29 47 -7
85 18 139 93 22 29 61 65 86 80 32 19 55 43 76 81 20 36 43 60 67 73 20 10 54
37 76 59 33 35 39 47 38 81 l-2 39 40 -2 c48 -2 62 14 54 61 -6 31 -5 32 27
32 18 0 38 4 44 8 18 12 25 47 15 75 -10 25 -9 25 23 20 29 -5 38 0 80 43 28
30 51 65 58 91 10 34 17 42 41 47 29 6 29 8 25 51 l-6 45 33 0 c27 0 39 9 79
61 46 59 53 77 45 109 -3 9 5 16 21 18 14 2 31 9 38 14 15 13 16 52 2 79 -9
17 -7 19 17 19 55 1 75 36 53 94 -9 24 -8 26 22 26 41 0 105 67 121 129 7 24
25 57 40 73 23 23 27 34 22 58 -6 25 -4 30 13 30 23 0 43 21 88 96 26 42 33
65 29 84 -5 22 0 32 29 53 45 35 71 101 63 162 -7 44 -6 45 22 45 40 0 55 22
48 70 -5 37 -3 40 28 50 39 13 48 30 35 66 -13 33 -13 34 3 34 8 0 22 9 32 20
16 18 17 33 1 71 -5 10 1 19 18 27 38 17 48 43 30 78 -8 16 -12 30 -7 31 34
12 58 32 61 48 1 11 10 44 18 73 15 49 15 55 -3 91 l-20 40 26 6 c14 4 32 11
38 17 19 16 16 53 -7 73 -26 24 -25 29 10 42 37 14 41 55 8 90 -17 18 -18 23
-6 23 23 0 37 22 53 84 18 68 19 100 4 127 -8 16 -7 25 5 38 21 24 20 43 -5
75 l-21 27 20 19 c27 25 37 95 24 157 -6 27 -8 83 -5 125 5 66 3 81 -15 110
-18 29 -21 48 -19 123 2 79 -1 95 -22 128 -19 32 -23 50 -22 114 1 64 -3 83
-24 119 -19 32 -25 57 -25 101 0 78 -35 154 -79 172 l-31 13 20 25 c11 14 20
34 20 44 0 21 -36 49 -62 49 -22 0 -23 13 -3 30 29 24 8 90 -28 90 -32 1 -39
16 -27 57 16 51 1 101 -45 152 -39 43 -55 73 -55 99 0 21 -18 32 -51 32 -22 0
-22 -1 -8 38 9 26 6 38 -16 81 -14 29 -40 68 -58 89 -19 20 -45 62 -60 92 -18
37 -42 66 -73 88 -30 22 -53 51 -70 87 -22 45 -34 58 -85 85 -39 21 -65 42
-75 63 -26 50 -55 77 -111 102 -37 17 -59 35 -78 65 -26 42 -77 80 -107 80
-10 0 -39 -38 -77 -99z"/>
<path d="M3476 5975 c-15 -8 -38 -12 -51 -9 -34 9 -95 -21 -95 -46 0 -19 -1
-20 -16 -6 -21 22 -44 20 -44 -2 0 -28 -11 -34 -31 -16 -24 21 -39 10 -40 -29
0 -18 -3 -26 -6 -19 -15 38 -85 30 -126 -16 -12 -13 -30 -20 -53 -19 -25 1
-42 -7 -67 -31 -18 -18 -37 -32 -43 -32 -5 0 -27 -12 -48 -26 -34 -24 -38 -30
-33 -59 5 -33 5 -33 -21 -20 -33 18 -45 10 -40 -26 4 -25 2 -27 -15 -18 -30
17 -50 3 -45 -30 4 -26 2 -29 -14 -20 -28 15 -77 -15 -85 -51 -3 -19 -12 -30
-23 -30 -25 0 -30 -9 -19 -37 7 -20 6 -24 -9 -22 -9 1 -22 1 -27 0 -17 -2 -47
-61 -42 -81 3 -14 -1 -20 -17 -22 -21 -3 -24 -18 -11 -50 6 -15 2 -18 -24 -18
-34 0 -39 -14 -14 -42 15 -17 15 -18 -14 -18 -37 0 -67 -39 -60 -76 3 -17 -2
-29 -16 -39 -16 -11 -18 -17 -8 -28 9 -12 7 -16 -11 -21 -31 -8 -71 -69 -55
-85 8 -8 5 -11 -10 -11 -40 0 -69 -70 -41 -98 9 -9 6 -12 -15 -12 -29 0 -33
-10 -17 -41 9 -17 7 -19 -16 -19 -23 0 -26 -3 -22 -25 4 -20 1 -25 -14 -25
-16 0 -19 -5 -14 -25 6 -22 3 -25 -20 -25 -23 0 -25 -3 -20 -25 5 -20 3 -25
-13 -25 -29 0 -63 -49 -58 -83 3 -24 1 -28 -15 -24 -23 6 -36 -19 -21 -42 8
-13 5 -16 -21 -16 -31 0 -33 -5 -21 -36 5 -12 0 -15 -22 -12 -36 6 -88 -38
-80 -67 4 -15 0 -20 -15 -20 -17 0 -19 -5 -14 -25 6 -23 4 -25 -18 -19 -26 6
-66 -24 -66 -50 0 -8 -10 -18 -22 -22 -32 -9 -58 -34 -58 -55 0 -11 -13 -22
-35 -29 -21 -7 -40 -22 -47 -38 -9 -18 -24 -29 -43 -32 -20 -3 -34 -14 -43
-33 -9 -18 -24 -30 -43 -34 -16 -3 -32 -10 -35 -14 -3 -5 -15 -9 -26 -9 -18 0
-20 -4 -15 -35 6 -34 5 -34 -17 -20 -25 17 -36 11 -36 -18 0 -16 -3 -17 -15
-7 -26 22 -48 4 -40 -32 l7 -31 -26 20 c-24 20 -29 20 -56 6 -16 -8 -32 -18
-35 -24 -4 -5 -15 -9 -26 -9 -15 0 -19 -7 -19 -32 l0 -32 -20 21 c-16 18 -25
20 -52 13 -17 -6 -36 -14 -42 -20 -5 -5 -26 -10 -46 -10 -20 0 -45 -6 -55 -14
-12 -9 -32 -12 -52 -9 -24 4 -39 0 -53 -12 -12 -11 -24 -14 -32 -8 -7 4 -42 8
-78 8 -36 1 -77 4 -91 9 -24 7 -27 5 -32 -31 -3 -21 -9 -79 -13 -130 l-7 -92
109 2 109 2 16 31 15 31 17 -29 c14 -24 20 -28 32 -18 7 6 16 21 18 33 3 21 4
20 15 -5 15 -36 30 -35 45 2 12 28 13 28 25 10 7 -11 23 -20 37 -20 29 0 75
20 75 32 0 5 21 6 47 2 43 -5 51 -3 72 20 17 18 35 26 57 26 54 0 84 16 84 45
0 22 3 24 19 15 32 -17 41 -12 41 25 0 35 0 35 25 19 29 -19 45 -11 45 23 0
21 2 24 15 13 17 -14 69 -7 92 11 7 6 13 19 13 28 0 14 7 17 31 13 30 -4 31
-3 27 21 -5 24 -3 25 22 21 37 -8 94 39 87 72 -3 20 -1 22 14 14 32 -18 41
-12 37 24 -4 34 -3 34 31 28 l34 -5 -6 36 c-5 35 -5 36 20 26 32 -12 79 14 92
52 5 15 19 30 31 34 18 6 21 12 16 37 -5 25 -3 29 11 24 18 -7 83 48 83 70 0
7 14 15 30 19 36 8 54 36 48 76 -4 26 -2 29 25 29 26 0 29 3 23 25 -5 20 -3
25 13 25 26 0 34 15 22 38 -9 17 -7 18 15 14 23 -4 24 -3 14 22 -13 36 -14 36
15 36 27 0 31 10 15 41 -10 17 -7 19 19 19 22 0 36 8 52 32 21 29 21 33 8 57
l-16 27 34 -4 c37 -5 43 9 18 45 -15 21 -15 22 20 16 30 -5 35 -3 35 14 0 10
-6 25 -12 32 -11 11 -9 12 8 7 31 -9 77 47 72 86 -3 19 0 28 9 28 20 0 26 25
14 49 -10 17 -9 20 4 15 21 -8 75 49 75 79 0 15 10 31 25 41 16 11 25 26 25
42 0 16 11 36 30 52 17 15 30 36 30 49 0 13 13 32 34 48 19 15 36 38 39 54 4
17 15 32 26 36 10 3 30 20 44 38 19 25 23 37 15 51 -9 16 -8 17 12 6 29 -16
46 0 31 28 -16 30 -14 34 9 22 29 -16 42 -3 35 32 -7 28 -6 29 14 18 18 -9 27
-7 50 9 15 11 34 27 41 35 7 9 16 13 21 10 5 -3 9 9 9 26 0 29 1 30 23 16 20
-14 26 -14 55 4 18 11 32 24 32 30 0 5 18 10 40 10 30 0 45 6 62 25 15 17 32
25 54 25 22 0 38 7 47 21 12 16 21 19 49 14 26 -5 40 -1 60 15 21 16 32 19 47
11 18 -10 81 3 81 16 0 2 -19 40 -42 84 -39 71 -46 79 -73 79 -16 0 -43 -7
-59 -15z"/>
<path d="M4470 5850 c-15 -81 -19 -125 -12 -132 5 -5 46 -13 90 -17 50 -4 87
-13 99 -22 10 -9 42 -24 70 -34 48 -17 55 -18 85 -3 l33 15 10 -41 c10 -42 12
-43 70 -34 17 2 20 -3 20 -32 l0 -35 46 2 c47 1 47 1 46 -31 -1 -40 44 -99 99
-130 25 -14 42 -34 53 -62 20 -51 38 -76 73 -98 17 -11 32 -33 38 -56 6 -20
19 -49 30 -63 11 -14 20 -32 20 -40 0 -22 27 -40 61 -40 16 0 28 -3 26 -6 -27
-52 -30 -64 -20 -79 5 -9 19 -19 29 -20 31 -6 37 -19 20 -43 -24 -34 -20 -47
19 -66 31 -15 33 -18 20 -33 -22 -25 -9 -144 20 -178 19 -22 20 -30 11 -55
-10 -26 -8 -31 16 -52 25 -22 25 -23 8 -41 -15 -16 -16 -29 -10 -92 6 -59 11
-76 29 -88 l22 -16 -26 -20 c-33 -25 -32 -41 5 -72 l31 -25 -26 -17 c-31 -20
-32 -50 -4 -80 l21 -23 -42 -40 -43 -41 5 -65 c5 -51 2 -72 -13 -99 -16 -30
-16 -35 -2 -55 14 -20 13 -24 -3 -36 -11 -8 -22 -15 -26 -15 -4 0 -17 -32 -30
-71 -17 -53 -20 -74 -12 -87 9 -14 4 -25 -26 -59 -50 -58 -77 -151 -48 -169 7
-5 -1 -12 -23 -19 -32 -12 -34 -14 -32 -58 1 -43 -1 -46 -29 -52 -36 -8 -45
-28 -31 -66 9 -23 9 -29 -3 -29 -8 0 -23 -9 -33 -19 -16 -16 -18 -26 -11 -50
8 -29 7 -31 -23 -39 -29 -8 -32 -12 -29 -44 2 -32 0 -36 -27 -41 -20 -4 -40
-22 -70 -64 -43 -60 -48 -81 -31 -114 10 -17 7 -19 -24 -19 -45 0 -62 -27 -47
-72 6 -17 11 -33 11 -34 0 -2 -18 -4 -40 -4 -47 0 -58 -16 -43 -64 10 -31 9
-32 -17 -28 -22 3 -35 -6 -77 -52 -32 -35 -53 -68 -57 -90 -6 -29 -11 -36 -30
-36 -36 0 -50 -23 -38 -60 11 -29 10 -30 -18 -30 -37 0 -103 -57 -131 -112
-11 -21 -42 -54 -68 -73 -28 -20 -56 -51 -66 -73 -23 -50 -43 -70 -88 -93 -23
-12 -49 -38 -68 -70 -21 -33 -45 -57 -73 -71 -54 -27 -74 -46 -96 -88 -11 -22
-34 -44 -57 -55 -21 -11 -60 -38 -86 -60 -43 -35 -48 -43 -45 -73 3 -25 1 -31
-10 -27 -63 24 -92 12 -92 -39 0 -32 -1 -32 -47 -32 -48 1 -48 1 -51 -35 -3
-35 -5 -36 -40 -36 -45 1 -142 -58 -160 -97 -7 -16 -23 -28 -44 -34 -25 -6
-34 -14 -36 -33 -6 -46 -9 -49 -41 -38 -35 12 -89 -12 -150 -66 -22 -20 -55
-38 -80 -44 -24 -5 -60 -23 -80 -40 -44 -38 -84 -58 -133 -66 -26 -4 -49 -18
-79 -50 -30 -31 -54 -47 -78 -51 -61 -10 -86 -21 -135 -58 -27 -20 -59 -36
-74 -36 -34 0 -132 -45 -132 -61 0 -9 132 -250 147 -268 9 -11 103 23 148 55
28 19 60 34 71 34 34 0 132 47 143 69 6 11 11 29 11 41 0 20 1 20 31 5 45 -24
72 -16 83 22 8 31 11 32 55 30 46 -2 46 -2 56 38 9 38 11 40 33 29 33 -16 87
6 148 63 27 25 76 57 109 72 36 17 70 41 84 61 13 17 44 41 70 52 44 20 118
71 133 93 4 5 8 23 8 39 0 23 3 27 18 21 47 -18 70 -17 81 3 6 12 11 32 11 46
0 23 2 24 31 16 47 -14 69 2 69 50 0 45 -1 44 36 30 22 -9 34 -6 74 20 59 38
79 60 89 96 5 20 15 30 32 32 35 5 49 21 49 53 0 26 3 29 33 29 28 0 43 10 90
59 39 41 57 68 57 85 0 22 5 26 29 26 39 0 55 22 47 64 l-7 35 34 -6 c48 -7
69 16 61 68 l-7 39 40 0 c53 0 85 26 117 94 14 30 40 66 57 79 29 23 31 27 21
56 -12 34 -11 36 39 45 29 5 44 18 77 62 24 32 42 68 42 83 0 21 9 30 41 45
67 31 122 142 89 181 -11 13 -7 15 28 15 50 0 66 18 58 64 -6 32 -5 35 23 41
44 10 56 29 43 70 -9 33 -9 35 13 35 12 0 33 8 46 19 21 17 22 22 11 45 -16
35 -17 33 23 40 38 7 40 12 25 51 -9 24 -7 27 25 41 20 8 41 27 51 47 9 17 27
45 40 60 25 30 30 62 14 87 -7 12 -2 17 22 26 46 15 56 36 36 76 l-15 33 36
10 c42 12 50 38 26 84 l-16 31 36 0 c30 0 39 6 62 42 23 34 28 53 28 103 0 53
3 64 20 71 26 12 31 49 11 79 -15 22 -14 24 5 30 30 10 51 70 54 155 2 54 9
86 24 115 17 32 21 55 20 115 -2 41 3 91 9 111 7 20 11 83 10 150 -1 62 0 132
2 155 2 26 -3 50 -15 67 -11 17 -21 61 -26 112 -11 108 -27 148 -68 165 l-32
13 21 22 c11 12 20 31 20 43 0 23 -34 52 -62 52 -22 0 -22 9 -3 34 30 39 7 86
-41 86 -28 0 -28 0 -13 50 10 33 9 44 -10 84 -12 24 -35 58 -51 73 -16 16 -36
45 -44 65 -12 28 -22 37 -43 40 -26 3 -28 6 -25 44 2 40 -1 44 -80 121 -46 43
-92 95 -103 114 -12 20 -42 46 -74 64 -30 17 -80 56 -112 87 -43 42 -68 59
-96 63 -63 11 -72 15 -119 56 -47 40 -56 44 -137 53 -26 3 -65 15 -86 26 -22
11 -64 23 -94 26 l-54 6 -23 -122z"/>
<path d="M3803 5386 c-7 -12 -17 -13 -52 -5 -80 18 -184 -19 -203 -71 -9 -28
-11 -29 -31 -15 -46 32 -87 15 -87 -37 0 -15 -4 -18 -17 -13 -41 18 -67 11
-78 -20 -9 -29 -12 -30 -42 -22 -44 13 -59 5 -67 -37 -6 -34 -8 -35 -49 -33
-41 2 -42 1 -45 -30 -3 -31 -6 -33 -39 -33 -30 0 -45 -9 -91 -55 -50 -50 -54
-57 -49 -90 5 -33 4 -35 -23 -35 -47 0 -60 -10 -60 -44 0 -17 5 -38 10 -46 8
-12 2 -16 -33 -20 -37 -4 -42 -8 -45 -32 -2 -15 2 -36 8 -48 10 -18 8 -20 -24
-20 -27 0 -41 -8 -66 -37 -35 -39 -60 -90 -60 -121 0 -10 -11 -24 -25 -30 -27
-12 -32 -40 -15 -73 9 -17 7 -19 -18 -19 -31 0 -84 -55 -121 -127 -11 -23 -37
-54 -57 -69 -21 -17 -45 -49 -59 -80 -16 -37 -36 -62 -67 -83 -23 -17 -61 -57
-84 -88 -22 -32 -59 -70 -81 -86 -23 -15 -55 -49 -72 -76 -16 -27 -42 -57 -57
-67 -56 -38 -116 -105 -109 -122 4 -10 9 -23 12 -29 4 -10 -3 -11 -26 -7 -43
9 -64 -11 -58 -53 3 -18 5 -33 4 -33 -1 0 -17 4 -35 9 -48 14 -62 5 -62 -39 0
-39 0 -39 -32 -30 -38 11 -102 -13 -140 -54 -13 -15 -37 -30 -54 -35 -17 -4
-30 -15 -32 -27 -7 -42 -10 -44 -36 -33 -34 16 -85 4 -139 -32 -41 -27 -52
-30 -91 -24 -36 6 -55 2 -102 -19 -40 -18 -73 -26 -113 -26 -37 0 -70 -7 -96
-20 -45 -23 -61 -25 -127 -15 -38 6 -58 3 -99 -15 -48 -20 -57 -21 -109 -10
-99 21 -100 19 -100 -126 0 -144 0 -144 88 -124 31 7 100 16 152 19 99 7 129
17 153 52 15 20 15 20 40 -5 39 -39 54 -35 92 19 13 20 14 20 38 -3 29 -27 52
-21 73 20 15 29 16 29 35 12 27 -24 106 -13 173 26 30 16 66 30 82 30 34 0 96
28 143 64 19 14 47 26 61 26 27 0 105 44 129 74 8 9 14 30 14 46 0 25 3 27 18
19 35 -18 69 -11 80 18 6 15 8 35 6 45 -4 14 -2 16 13 8 25 -14 63 -13 78 2 7
7 12 26 12 43 0 29 2 31 33 27 29 -3 41 3 90 50 40 38 57 61 57 79 0 19 7 27
33 34 29 9 32 14 32 48 0 36 1 37 36 37 32 0 42 7 84 57 38 47 46 62 41 85 -5
25 -3 28 23 28 38 0 55 22 47 61 -5 27 -4 30 15 24 12 -4 30 0 45 10 22 14 25
22 19 51 -6 33 -5 34 27 34 27 0 43 9 74 43 23 23 51 63 63 88 12 25 33 52 47
59 21 12 25 19 20 46 -6 28 -4 32 26 40 47 14 110 106 102 152 -3 20 -1 32 7
32 20 0 69 41 85 72 9 17 16 50 16 74 1 41 3 43 32 46 28 3 31 7 34 40 3 33 6
37 35 40 29 3 32 6 35 40 3 33 6 37 35 40 29 3 32 6 35 40 3 36 4 37 40 35 35
-2 37 0 40 31 3 31 5 32 46 32 52 0 122 46 139 91 12 30 21 36 32 19 9 -14 48
-13 63 2 7 7 12 25 12 41 0 29 0 29 25 13 39 -26 65 -21 72 14 7 35 18 46 27
25 8 -21 123 -21 154 1 21 15 25 15 41 0 24 -22 47 -20 65 6 9 12 17 20 19 17
2 -2 11 -16 20 -31 17 -28 63 -41 141 -40 29 1 53 -7 80 -26 32 -22 48 -26
100 -24 50 1 68 -3 99 -24 22 -14 61 -29 89 -33 41 -7 57 -16 87 -48 20 -22
57 -49 83 -61 29 -12 52 -31 61 -49 24 -46 93 -96 127 -91 25 4 27 2 19 -13
-14 -27 -11 -66 7 -73 9 -3 29 -6 45 -6 27 0 29 -2 19 -20 -6 -12 -10 -33 -8
-48 2 -21 10 -28 36 -33 43 -9 45 -12 31 -42 -15 -32 2 -105 33 -148 14 -18
22 -43 21 -64 -1 -29 3 -36 23 -41 30 -8 30 -15 3 -40 -19 -17 -21 -27 -17
-105 5 -76 3 -90 -19 -130 -19 -36 -22 -53 -17 -94 5 -46 3 -55 -30 -102 -22
-32 -36 -64 -36 -83 0 -35 -19 -80 -54 -128 -13 -18 -27 -51 -31 -74 -5 -29
-19 -53 -49 -83 -50 -51 -73 -92 -60 -105 5 -5 53 -33 106 -64 l97 -54 25 23
c27 25 66 95 66 119 0 8 18 36 40 61 69 80 93 142 71 184 -8 14 -4 20 24 30
41 15 46 27 30 75 l-13 38 34 14 c39 17 41 27 14 72 l-20 33 29 10 c40 14 53
56 50 166 -2 54 2 96 9 110 18 32 14 102 -8 152 -13 27 -20 65 -20 102 0 83
-38 167 -79 175 -29 6 -29 7 -15 29 9 13 14 36 12 52 -2 22 -10 29 -38 37 -45
12 -44 11 -30 36 18 33 5 66 -30 79 -17 5 -38 7 -46 4 -14 -5 -14 -3 -4 14 17
27 7 62 -33 115 -22 28 -47 48 -74 57 -29 11 -45 24 -54 45 -12 27 -18 31 -52
29 -35 -2 -37 -1 -31 22 8 31 -29 68 -101 104 -41 20 -53 22 -77 13 -28 -10
-30 -9 -40 18 -13 39 -41 46 -83 21 -33 -19 -35 -19 -35 -2 0 10 -9 29 -19 42
l-20 24 -39 -22 -39 -22 -15 32 c-13 28 -24 34 -79 47 -35 8 -76 13 -91 12
-15 -2 -41 5 -58 14 -29 18 -30 17 -54 -5 l-24 -22 -22 30 c-21 31 -22 31
-110 31 -67 0 -91 -4 -97 -14z"/>
<path d="M3832 4890 c-12 -5 -25 -16 -28 -25 -5 -11 -15 -13 -45 -9 -35 6 -39
4 -44 -19 -6 -22 -11 -25 -35 -21 -41 9 -140 -56 -140 -91 0 -22 -3 -24 -28
-19 -40 8 -58 -15 -43 -56 9 -28 9 -31 -8 -25 -37 11 -54 -5 -47 -46 6 -39 6
-39 -28 -39 -29 0 -39 -7 -65 -42 -17 -23 -31 -49 -31 -57 0 -8 -12 -27 -26
-42 -22 -23 -24 -30 -14 -48 14 -27 6 -41 -24 -41 -30 0 -99 -96 -86 -120 7
-13 2 -20 -25 -33 -40 -19 -69 -68 -63 -108 4 -27 2 -29 -30 -29 -34 0 -35 -1
-29 -35 5 -32 4 -35 -20 -35 -24 0 -25 -3 -20 -35 4 -21 2 -33 -4 -30 -5 4
-19 3 -30 0 -16 -6 -20 -13 -17 -36 4 -27 2 -29 -30 -29 -32 0 -34 -2 -30 -29
2 -17 1 -28 -3 -25 -19 11 -62 -11 -91 -48 -27 -35 -30 -44 -22 -67 10 -26 10
-26 -29 -22 l-40 3 5 -38 5 -39 -36 0 c-35 0 -36 -1 -33 -37 3 -37 2 -38 -21
-27 -20 9 -30 6 -63 -16 -45 -31 -54 -42 -54 -72 0 -18 -5 -21 -27 -20 -25 2
-28 -1 -28 -29 0 -29 -2 -30 -22 -21 -25 11 -70 -15 -115 -68 -15 -18 -41 -35
-57 -38 -30 -6 -35 -11 -71 -58 -12 -17 -34 -29 -57 -34 -27 -5 -50 -19 -79
-51 -28 -30 -49 -44 -67 -44 -16 0 -44 -15 -72 -40 -25 -22 -56 -40 -68 -40
-12 0 -41 -10 -65 -22 -37 -20 -43 -27 -39 -50 4 -32 3 -32 -22 -16 -28 17
-51 3 -51 -31 l0 -30 -30 17 c-30 16 -32 16 -45 -2 -8 -11 -15 -28 -15 -38 0
-17 -2 -17 -25 -2 -30 20 -74 12 -113 -21 -15 -13 -41 -25 -57 -27 -22 -2 -31
-9 -33 -25 -4 -27 -6 -28 -37 -7 -28 18 -79 8 -121 -25 -20 -15 -41 -21 -80
-21 -40 0 -62 -6 -90 -25 -29 -20 -45 -24 -70 -19 -26 5 -44 0 -78 -20 -37
-21 -51 -24 -94 -19 -40 4 -58 2 -78 -12 -19 -12 -37 -15 -63 -11 -20 3 -54 1
-75 -5 -37 -10 -38 -12 -33 -47 3 -20 11 -76 18 -124 l12 -88 38 0 c21 0 50 5
66 12 15 6 58 12 94 13 76 1 119 22 119 58 1 21 1 21 21 -5 26 -35 52 -36 68
-2 11 25 13 25 30 10 27 -25 48 -19 60 16 l11 31 24 -22 c21 -20 28 -21 62
-12 22 6 53 20 69 31 17 11 45 20 63 20 36 0 81 20 101 44 9 10 30 16 58 16
24 0 61 9 83 20 33 17 40 26 40 51 l0 30 29 -22 c45 -33 66 -17 64 48 -1 8 9
5 24 -7 14 -11 29 -20 34 -20 17 0 39 33 39 57 0 26 0 26 20 8 20 -18 23 -18
76 -1 37 12 58 25 65 40 8 17 17 22 36 18 28 -5 43 10 43 45 0 19 3 20 28 11
23 -9 35 -6 77 19 37 21 51 36 53 55 3 22 8 26 35 24 30 -1 32 1 35 36 3 35 4
37 29 27 34 -13 53 4 53 48 0 30 2 33 19 23 11 -5 27 -10 36 -10 25 0 91 48
103 76 8 15 23 27 42 30 26 6 30 11 30 40 0 32 2 34 36 34 43 0 114 53 114 86
0 23 17 34 52 34 11 0 36 16 55 35 29 29 34 41 31 68 -3 31 -2 32 32 32 33 0
35 2 34 30 -1 28 1 30 35 30 34 0 36 1 33 33 -2 30 0 32 28 32 28 0 30 2 30
41 l0 41 36 -7 36 -6 -6 34 c-6 34 -6 35 31 42 29 5 44 16 66 47 25 35 27 45
18 65 -14 31 -15 30 19 25 36 -5 48 17 33 59 -11 28 -10 29 22 29 37 0 51 20
35 50 -14 26 -13 28 13 23 29 -6 88 65 92 110 1 19 9 33 18 35 21 4 29 29 17
53 -9 16 -7 19 14 19 28 0 65 41 73 82 3 16 23 42 49 63 29 24 44 44 44 59 0
25 23 50 57 60 12 4 36 25 53 47 18 22 40 39 52 39 11 0 32 13 48 29 22 22 42
30 86 35 68 8 74 11 74 39 1 20 2 20 16 -5 8 -16 21 -28 29 -28 8 0 21 12 29
28 9 15 15 20 16 12 0 -8 5 -22 10 -30 8 -12 14 -10 40 15 l30 29 0 -36 c0
-31 4 -37 33 -48 70 -26 77 -30 77 -46 0 -13 6 -15 29 -11 25 5 28 4 24 -17
-6 -27 16 -73 46 -100 16 -14 21 -31 21 -66 0 -32 6 -55 19 -72 16 -20 19 -35
14 -80 -4 -36 -2 -58 6 -62 14 -9 14 -58 -1 -91 -9 -20 -8 -31 2 -50 12 -23
11 -31 -8 -71 -12 -24 -22 -51 -22 -59 0 -14 62 -50 175 -99 l55 -25 15 29 c8
16 15 53 15 83 0 39 6 61 20 80 14 18 20 40 20 77 0 59 -13 90 -38 90 -13 0
-11 6 11 25 35 33 34 51 -3 70 l-30 16 21 29 c12 16 19 36 16 45 -6 14 -13 18
-56 31 -11 4 -10 8 4 24 26 29 15 86 -29 150 -20 29 -36 61 -36 72 0 32 -37
85 -76 108 -19 12 -41 35 -50 52 -10 20 -34 38 -69 54 -51 24 -56 24 -85 9
-29 -15 -30 -15 -30 5 0 58 -45 78 -87 38 -23 -21 -23 -21 -23 -1 0 11 -9 28
-20 38 -17 15 -24 16 -45 7 -14 -7 -29 -21 -34 -33 -7 -21 -8 -20 -20 10 -13
30 -16 31 -70 30 -31 0 -66 -4 -79 -9z"/>
<path d="M3860 4201 c0 -11 -5 -23 -11 -26 -6 -4 -8 -13 -5 -21 3 -7 1 -16 -5
-20 -6 -3 -8 -12 -5 -20 3 -8 1 -14 -5 -14 -6 0 -7 -4 -4 -10 3 -5 -1 -20 -10
-33 -8 -13 -12 -27 -8 -30 3 -4 1 -7 -6 -7 -8 0 -11 -7 -7 -15 3 -8 1 -15 -5
-15 -16 0 -69 -47 -62 -54 4 -3 1 -6 -5 -6 -7 0 -12 -5 -12 -10 0 -6 -14 -24
-30 -42 -17 -17 -28 -38 -26 -45 3 -8 -2 -13 -14 -13 -12 0 -26 -12 -35 -30
-9 -16 -20 -30 -26 -30 -6 0 -7 -4 -4 -10 3 -5 0 -10 -7 -10 -8 0 -20 -9 -28
-20 -8 -11 -20 -20 -26 -20 -12 0 -29 -28 -26 -42 1 -5 -5 -8 -13 -8 -8 0 -17
-11 -21 -25 -3 -14 -10 -25 -16 -25 -5 0 -7 -4 -4 -9 3 -5 -6 -17 -19 -27 -14
-10 -25 -24 -25 -31 0 -7 -7 -13 -16 -13 -8 0 -12 -4 -9 -10 3 -5 1 -10 -5
-10 -6 0 -19 -7 -27 -16 -15 -14 -9 -22 57 -89 89 -90 112 -104 134 -82 9 9
16 20 16 26 0 6 5 11 11 11 5 0 7 5 4 10 -3 6 2 13 12 17 27 10 65 52 58 63
-3 6 1 7 9 4 11 -4 16 0 16 10 0 9 5 16 10 16 12 0 59 50 60 63 0 8 17 30 38
50 7 7 24 22 38 35 13 13 21 28 18 34 -4 7 -2 8 4 4 7 -4 14 3 18 19 3 14 15
32 26 39 11 8 17 19 13 25 -3 6 1 14 9 17 9 3 13 10 10 15 -3 5 1 9 9 9 14 0
32 27 29 43 -1 4 3 7 9 7 15 0 49 39 49 57 0 7 5 13 10 13 6 0 10 9 10 20 0
11 5 20 10 20 6 0 10 7 10 15 0 8 8 15 17 15 9 0 13 3 10 6 -4 4 3 16 15 26
19 16 20 21 8 28 -12 8 -12 10 3 10 10 0 17 4 15 9 -4 12 -219 171 -230 171
-5 0 -8 -9 -8 -19z"/>
<path d="M6328 4150 c-64 -3 -120 -9 -124 -13 -7 -7 -8 -31 -5 -107 0 -14 0
-50 0 -80 -1 -43 3 -58 20 -71 20 -16 20 -16 -5 -27 -31 -15 -31 -35 3 -57
l26 -18 -26 -14 c-32 -16 -35 -38 -7 -55 18 -12 18 -13 -10 -24 -23 -10 -30
-20 -35 -57 -4 -25 -4 -51 0 -57 4 -6 -3 -29 -14 -51 -12 -22 -21 -59 -21 -83
0 -30 -6 -48 -19 -60 -28 -25 -38 -111 -16 -136 16 -17 15 -18 -14 -25 -35 -7
-40 -28 -14 -57 15 -17 15 -18 -8 -18 -13 0 -31 -5 -39 -10 -13 -8 -13 -13 2
-40 17 -29 17 -30 -5 -30 -29 0 -67 -59 -67 -104 0 -24 -7 -38 -22 -48 -20
-13 -21 -18 -10 -42 11 -24 10 -26 -11 -26 -17 0 -31 -14 -55 -57 -18 -31 -31
-62 -28 -69 3 -7 -4 -16 -15 -19 -20 -7 -21 -16 -4 -57 6 -14 2 -18 -18 -18
-31 0 -47 -19 -36 -45 12 -32 11 -35 -20 -35 -33 0 -65 -36 -76 -86 -4 -16
-18 -39 -32 -50 -21 -18 -23 -25 -14 -43 10 -19 9 -21 -11 -21 -30 0 -92 -73
-85 -101 4 -15 -2 -23 -26 -33 -47 -20 -72 -52 -72 -95 0 -36 0 -36 -34 -32
-33 3 -34 3 -29 -28 4 -29 2 -31 -25 -31 -27 0 -29 -2 -25 -35 4 -33 2 -35
-24 -35 -24 0 -28 -4 -28 -30 0 -26 -4 -30 -26 -30 -24 0 -26 -3 -20 -30 5
-28 3 -30 -23 -30 -38 0 -85 -65 -79 -109 4 -28 4 -29 -35 -23 l-40 5 6 -37 6
-37 -36 7 -36 7 6 -41 c5 -39 4 -41 -14 -31 -15 8 -27 4 -59 -22 -22 -18 -42
-44 -45 -60 -5 -23 -12 -29 -32 -29 -22 0 -25 -3 -21 -30 4 -28 2 -30 -27 -30
-35 0 -67 -28 -84 -71 -5 -15 -29 -40 -53 -56 -23 -16 -48 -39 -54 -51 -18
-37 -44 -59 -75 -66 -23 -4 -34 -15 -48 -50 -15 -34 -27 -46 -54 -55 -21 -7
-43 -26 -58 -49 -13 -20 -33 -41 -45 -47 -11 -5 -35 -23 -53 -38 -28 -23 -32
-32 -28 -57 6 -28 5 -29 -18 -18 -37 17 -59 3 -52 -31 6 -29 5 -29 -28 -24
-34 5 -35 5 -35 -29 0 -33 -1 -34 -36 -30 -31 4 -40 -1 -77 -40 -23 -24 -50
-48 -61 -51 -13 -5 -17 -13 -12 -31 6 -23 4 -24 -28 -19 -31 5 -39 1 -78 -39
-27 -28 -56 -47 -77 -51 -22 -5 -48 -23 -76 -52 -24 -26 -50 -45 -63 -45 -13
0 -34 -16 -53 -40 -21 -26 -45 -44 -70 -50 -40 -11 -62 -28 -79 -61 -6 -10
-23 -22 -38 -25 -41 -10 -102 -43 -102 -56 0 -6 25 -42 55 -79 l56 -69 35 15
c19 8 46 28 60 45 14 16 30 28 35 25 10 -7 61 18 78 39 7 8 13 28 13 44 1 29
1 29 28 14 37 -21 60 -10 60 30 0 25 3 29 12 20 7 -7 22 -12 35 -12 20 0 23 5
23 35 0 34 12 46 25 25 15 -24 57 -9 100 35 24 25 60 52 79 60 21 9 46 31 61
54 13 22 35 43 47 46 13 4 38 19 56 32 27 21 33 31 30 54 -4 24 -2 26 13 18
36 -19 49 -11 49 29 0 36 1 37 37 37 36 0 38 2 37 31 -2 30 -1 31 26 21 36
-14 89 15 110 61 12 25 21 32 44 32 26 0 28 3 24 30 -4 29 -3 30 21 25 39 -8
114 57 109 94 -4 25 -2 26 30 23 l34 -4 -3 38 c-4 39 -4 39 27 36 38 -5 48 7
34 42 -9 24 -8 25 20 19 35 -7 91 30 112 74 7 15 24 33 38 40 17 8 24 19 22
33 -3 17 2 20 30 20 46 0 103 56 96 94 -4 17 -1 26 8 26 45 0 102 67 91 108
-3 14 4 17 32 17 34 0 36 2 34 31 -3 30 -1 32 30 30 30 -1 32 1 32 31 0 28 3
31 21 27 26 -7 47 17 42 48 -3 21 0 23 36 20 38 -4 38 -3 34 27 -4 26 -1 31
17 31 13 0 34 16 54 41 26 32 32 47 27 70 -5 27 -3 29 24 29 24 0 30 4 30 21
0 11 -4 28 -9 38 -8 15 -5 16 25 13 39 -5 52 14 34 47 -10 19 -8 21 17 21 42
0 93 52 93 96 0 28 4 34 21 34 18 0 21 5 17 35 -4 31 -1 35 19 35 30 0 70 42
78 81 4 16 27 49 51 73 25 26 44 53 44 66 0 13 18 39 43 64 32 31 46 53 50 82
5 28 18 53 43 78 25 26 34 43 31 58 -6 22 11 68 25 68 5 0 18 21 29 48 16 36
18 51 9 65 -13 22 -5 37 21 37 30 0 34 28 9 56 -23 24 -23 24 -3 24 53 0 65
22 37 65 -16 25 -16 25 16 31 37 8 60 49 60 107 0 18 5 38 12 45 8 8 9 18 1
35 -10 21 -8 26 11 35 23 10 46 72 46 125 0 14 9 46 21 72 14 31 19 58 15 77
-4 20 1 43 15 71 19 37 20 46 10 87 -10 39 -9 51 5 79 14 29 15 41 5 86 -9 40
-9 62 0 96 8 29 9 54 3 69 l-9 25 -117 -5z"/>
<path d="M4228 3555 c-10 -13 -18 -36 -18 -50 0 -18 -6 -29 -19 -32 -23 -6
-45 -55 -38 -83 4 -17 0 -20 -25 -20 l-30 0 17 -26 17 -27 -31 6 c-33 7 -40
-7 -21 -42 8 -15 6 -17 -14 -14 -17 4 -29 -3 -45 -25 -11 -17 -21 -37 -21 -45
0 -8 -16 -27 -35 -41 -22 -17 -35 -36 -35 -50 0 -13 -13 -34 -30 -49 -31 -28
-46 -65 -37 -96 3 -14 0 -17 -14 -14 -33 9 -51 -4 -39 -27 10 -18 8 -20 -21
-20 -29 0 -31 -2 -26 -29 5 -25 4 -28 -18 -23 -32 6 -79 -40 -73 -72 4 -19 1
-22 -20 -18 -22 4 -24 2 -20 -22 4 -22 2 -26 -17 -26 -30 0 -69 -44 -62 -70 5
-19 2 -21 -20 -15 -25 6 -26 4 -20 -28 5 -32 4 -33 -25 -29 -31 5 -31 4 -25
-31 5 -35 5 -35 -23 -27 -34 10 -65 -8 -74 -45 -4 -15 -16 -27 -32 -31 -22 -6
-24 -10 -19 -35 6 -28 6 -29 -20 -19 -21 8 -31 6 -56 -12 -19 -15 -28 -29 -26
-40 4 -14 1 -17 -17 -12 -32 8 -68 -25 -70 -63 -1 -26 -4 -29 -18 -22 -32 17
-49 11 -42 -16 6 -24 5 -25 -20 -16 -28 11 -40 2 -30 -24 5 -13 2 -15 -20 -9
-24 6 -26 4 -26 -26 0 -27 -3 -31 -17 -25 -36 14 -48 11 -45 -13 2 -19 -2 -22
-18 -17 -11 3 -31 -1 -47 -12 -36 -23 -44 -34 -39 -55 3 -14 1 -16 -14 -8 -30
16 -40 12 -40 -15 0 -23 -2 -24 -20 -15 -27 14 -43 3 -36 -25 6 -22 4 -23 -22
-13 -40 15 -80 3 -88 -26 -4 -19 -12 -24 -32 -23 -24 2 -27 -2 -25 -26 2 -26
1 -26 -19 -13 -19 13 -25 13 -58 -4 -21 -11 -40 -26 -43 -35 -4 -9 -19 -15
-40 -15 -25 0 -38 -7 -55 -29 -19 -26 -26 -29 -60 -24 -33 4 -41 2 -55 -21
-14 -21 -25 -26 -61 -26 -36 0 -47 -5 -60 -25 -11 -17 -26 -25 -46 -25 -35 0
-80 -19 -81 -34 -1 -6 0 -18 1 -26 2 -12 -2 -12 -17 3 -27 24 -40 21 -47 -9
-5 -20 -10 -24 -19 -15 -6 6 -19 11 -29 11 -14 0 -18 -8 -18 -32 l0 -31 -23
21 c-31 29 -82 29 -97 1 -8 -14 -19 -19 -38 -17 -20 2 -27 -2 -32 -21 -5 -21
-7 -22 -19 -7 -15 18 -55 13 -83 -12 -12 -10 -28 -12 -50 -8 -23 4 -42 0 -64
-13 -24 -14 -43 -18 -73 -14 -31 4 -46 1 -60 -11 -14 -13 -28 -16 -55 -11 -27
6 -41 2 -61 -13 -18 -15 -33 -19 -47 -13 -11 4 -34 5 -50 3 l-30 -5 7 -96 c10
-139 10 -141 54 -141 20 0 44 7 55 15 12 9 25 11 40 6 36 -14 86 -1 98 25 l11
23 17 -21 c21 -26 40 -16 40 20 l0 26 16 -22 c21 -31 43 -28 51 8 5 30 6 30
20 10 17 -24 70 -27 99 -5 10 8 40 15 65 15 33 0 51 6 65 21 12 14 25 18 41
14 36 -9 93 20 93 46 l0 22 24 -22 c30 -28 46 -20 46 22 1 30 2 31 15 14 18
-25 48 -18 55 13 5 21 7 22 13 8 12 -33 117 -18 117 17 0 11 8 13 30 9 28 -6
30 -4 30 22 l0 28 21 -21 c20 -20 24 -20 65 -6 33 11 44 20 44 36 0 16 3 18
12 9 7 -7 20 -12 30 -12 14 0 18 8 18 33 1 26 2 29 11 15 15 -27 49 -23 49 5
0 31 8 38 30 25 23 -15 63 -3 96 27 15 14 38 25 50 25 17 0 24 6 24 20 0 16 5
19 24 14 27 -6 111 40 101 56 -4 6 8 10 28 10 40 0 77 34 77 70 0 19 3 21 12
12 22 -22 48 -14 54 18 5 25 9 28 25 20 28 -16 39 -12 39 13 0 18 5 23 28 22
23 0 27 4 27 28 -1 27 9 35 20 17 12 -19 35 -10 35 14 0 19 4 22 24 19 15 -3
36 4 56 18 25 19 31 30 28 51 -4 28 5 37 17 18 3 -5 15 -10 27 -10 17 0 20 4
14 30 -5 28 -4 30 15 19 31 -16 52 -4 45 27 -6 22 -4 24 12 15 15 -8 27 -4 55
15 21 14 37 31 37 39 0 9 10 15 26 15 22 0 26 4 22 24 -4 18 -1 22 13 19 22
-6 58 18 73 48 6 13 26 27 44 31 25 7 37 18 48 44 10 24 26 40 49 49 23 10 37
25 45 49 8 25 20 37 47 47 26 11 38 23 47 49 7 21 19 36 32 40 12 3 34 19 48
37 22 26 25 36 17 52 -15 27 -14 30 9 24 11 -3 27 -3 35 1 14 5 14 9 0 35
l-15 30 35 -6 c38 -6 43 3 24 39 -10 19 -9 20 21 13 36 -8 70 15 70 47 0 10 9
27 20 38 16 16 18 25 10 40 -14 26 -13 28 14 23 20 -4 29 2 45 28 12 19 21 42
21 52 0 10 8 20 18 24 32 11 52 36 52 64 0 21 7 32 29 43 31 16 41 34 41 72 0
17 8 27 25 34 26 10 29 14 39 62 4 15 17 38 31 50 13 13 28 35 34 50 10 26 8
28 -99 87 -60 34 -110 61 -112 61 -2 0 -11 -11 -20 -25z"/>
<path d="M2983 3133 c-7 -2 -13 -13 -13 -23 0 -11 -10 -20 -25 -24 -18 -5 -25
-13 -25 -31 0 -16 -6 -25 -16 -25 -11 0 -15 -6 -11 -19 3 -14 0 -17 -14 -14
-14 4 -16 1 -12 -16 4 -17 2 -20 -11 -15 -10 4 -26 -4 -43 -23 -16 -16 -36
-32 -45 -36 -10 -3 -18 -15 -18 -26 0 -13 -11 -23 -35 -31 -19 -6 -35 -18 -35
-25 0 -9 -6 -12 -16 -8 -14 5 -16 1 -12 -19 4 -24 3 -25 -15 -15 -15 9 -21 9
-24 0 -3 -7 -17 -13 -33 -13 -20 0 -31 -6 -35 -20 -3 -11 -11 -20 -17 -20 -6
0 -8 -9 -5 -21 4 -16 3 -18 -8 -9 -19 16 -55 -8 -55 -36 0 -17 -5 -21 -20 -17
-14 4 -20 0 -20 -11 0 -10 -8 -15 -22 -13 -18 1 -23 -3 -22 -21 0 -16 -3 -19
-10 -12 -16 16 -44 12 -56 -10 -6 -11 -19 -19 -28 -18 -12 2 -16 -3 -14 -15 3
-15 0 -17 -14 -9 -21 12 -64 -12 -64 -34 0 -9 -11 -14 -30 -14 -17 0 -33 -6
-36 -14 -3 -9 -12 -12 -21 -9 -13 5 -15 1 -11 -21 4 -20 2 -24 -5 -17 -15 15
-27 14 -27 -3 0 -8 -8 -13 -17 -12 -13 1 -17 -5 -15 -23 2 -23 1 -24 -16 -8
-23 21 -32 21 -32 1 0 -11 -5 -14 -16 -10 -26 10 -53 -11 -46 -36 6 -23 5 -23
-14 -4 -19 20 -19 19 -22 -7 -3 -24 -5 -25 -18 -12 -21 20 -37 19 -32 -2 4
-15 -2 -18 -31 -19 -19 0 -37 -6 -39 -12 -2 -6 -10 -8 -18 -5 -10 4 -14 -3
-14 -23 0 -22 -3 -25 -12 -16 -18 18 -56 15 -63 -7 -4 -13 -12 -17 -29 -14
-17 4 -27 -1 -35 -16 -9 -16 -18 -19 -40 -15 -22 5 -29 2 -33 -14 -4 -15 -12
-19 -32 -15 -19 4 -31 0 -40 -12 -7 -10 -18 -15 -24 -11 -17 10 -52 -12 -52
-32 -1 -16 -1 -16 -11 1 -15 25 -29 21 -29 -10 -1 -24 -2 -25 -11 -10 -13 22
-39 22 -39 0 0 -13 -3 -14 -12 -5 -16 16 -53 15 -67 -2 -8 -10 -25 -13 -52
-10 -30 4 -41 1 -45 -11 -5 -12 -14 -14 -35 -10 -20 5 -34 2 -45 -10 -10 -9
-24 -13 -36 -10 -10 4 -25 1 -33 -5 -12 -10 -18 -10 -30 0 -12 10 -22 10 -39
2 -15 -7 -27 -7 -33 -1 -5 5 -17 7 -25 4 -16 -6 -22 -36 -34 -176 -6 -73 -5
-77 15 -84 12 -4 28 -2 36 5 9 8 20 8 32 2 27 -15 73 -3 82 21 7 18 8 18 14 4
9 -24 24 -21 33 5 l7 23 8 -23 c10 -27 29 -20 29 11 1 20 2 20 11 5 12 -22 38
-23 65 -4 11 9 30 12 48 9 21 -5 33 -1 42 12 8 10 20 15 29 11 10 -3 25 4 40
18 13 13 26 21 29 18 4 -3 12 3 20 13 9 12 15 15 20 7 13 -21 26 -13 26 16 1
23 2 24 11 10 13 -24 56 -23 70 1 7 11 19 16 31 13 12 -3 18 1 18 14 0 13 3
15 11 7 15 -15 61 -3 66 18 4 15 9 16 24 8 16 -8 19 -6 19 13 0 17 3 19 12 10
18 -18 28 -15 28 10 0 20 1 20 18 5 25 -23 53 -21 59 4 4 14 12 19 24 16 12
-3 19 0 19 10 0 8 5 11 11 7 18 -11 61 18 56 38 -4 15 -2 16 14 7 23 -12 59 4
59 26 0 9 6 12 15 9 10 -4 15 0 15 14 0 16 5 19 21 15 19 -5 20 -3 14 18 -7
21 -6 22 8 10 15 -11 18 -10 25 10 6 15 11 18 16 11 10 -17 36 -15 36 3 0 8 6
12 14 9 22 -9 56 14 56 38 0 17 3 19 12 10 19 -19 28 -14 28 15 0 21 3 24 12
15 18 -18 28 -15 28 9 0 16 3 19 13 11 15 -12 55 2 63 23 4 8 12 15 20 15 8 0
14 4 14 9 0 5 9 13 20 16 12 4 28 15 38 25 9 10 28 20 42 22 19 2 26 10 28 31
3 23 7 27 30 25 20 -2 29 3 37 19 5 13 22 25 38 29 17 3 32 14 34 25 3 12 14
19 28 19 32 0 49 24 40 57 -6 26 -6 27 13 10 26 -24 35 -21 28 9 -6 22 -5 24
13 15 28 -16 34 -14 28 9 -4 17 -2 20 13 15 13 -4 25 3 41 24 12 17 27 27 32
24 6 -4 8 0 4 11 -4 11 -2 16 6 14 17 -3 57 21 57 35 0 7 14 20 30 29 17 9 30
24 30 33 0 8 7 15 15 15 9 0 24 13 33 30 11 19 25 30 40 30 17 0 22 6 22 24 0
17 10 30 35 45 19 11 35 26 35 33 0 7 -31 30 -69 51 -70 37 -76 39 -98 30z"/>
<path d="M4289 2679 c-6 -12 -23 -32 -36 -44 -23 -19 -24 -24 -14 -44 12 -21
11 -22 -9 -11 -26 14 -38 6 -21 -14 10 -12 8 -13 -11 -8 -22 5 -22 5 -6 -19
15 -24 15 -25 -5 -25 -14 1 -26 -9 -35 -26 -7 -16 -21 -28 -33 -28 -14 0 -19
-7 -19 -30 0 -23 -4 -30 -20 -30 -15 0 -22 -8 -26 -29 -5 -22 -10 -28 -22 -24
-11 5 -14 2 -9 -10 4 -11 1 -17 -9 -17 -11 0 -13 -6 -9 -21 5 -15 4 -19 -4
-15 -24 15 -49 -5 -56 -43 -5 -30 -10 -38 -24 -34 -22 6 -45 -21 -38 -46 3
-15 1 -18 -11 -14 -12 5 -14 1 -10 -15 7 -25 5 -26 -24 -11 -19 10 -20 9 -14
-14 5 -22 3 -24 -15 -20 -25 7 -74 -40 -65 -62 3 -10 -3 -13 -22 -12 -19 1
-30 -4 -36 -20 -6 -12 -18 -24 -28 -26 -10 -3 -18 -14 -18 -25 0 -16 -5 -19
-22 -14 -17 4 -20 2 -16 -15 4 -16 2 -19 -13 -16 -13 4 -19 0 -19 -11 0 -9 -6
-13 -14 -10 -11 4 -13 0 -9 -18 5 -19 3 -21 -8 -10 -18 16 -29 15 -29 -3 0 -9
-9 -15 -22 -15 -31 0 -52 -15 -43 -30 5 -9 1 -10 -15 -5 -20 6 -22 4 -17 -14
4 -18 2 -19 -14 -10 -15 7 -19 6 -19 -6 0 -9 -9 -15 -24 -15 -16 0 -27 -7 -31
-20 -3 -11 -13 -20 -22 -20 -11 0 -14 -6 -10 -21 4 -16 3 -18 -8 -9 -17 14
-55 -3 -55 -24 0 -7 -13 -16 -29 -19 -17 -4 -30 -14 -34 -26 -3 -13 -13 -21
-27 -21 -13 0 -24 -8 -27 -20 -3 -11 -14 -20 -24 -20 -11 0 -24 -11 -31 -25
-7 -15 -20 -25 -32 -25 -32 0 -48 -14 -40 -36 7 -18 7 -18 -13 -1 -24 21 -37
22 -30 3 4 -11 1 -13 -10 -9 -13 5 -15 2 -10 -17 4 -17 3 -20 -6 -11 -17 17
-44 13 -66 -10 -11 -12 -24 -18 -30 -14 -6 3 -11 1 -11 -5 0 -6 -4 -9 -9 -6
-5 3 -20 -3 -34 -14 -14 -11 -29 -20 -34 -19 -22 4 -33 -3 -33 -21 0 -17 -4
-19 -26 -14 -20 5 -26 2 -31 -16 -5 -18 -11 -21 -34 -16 -21 4 -31 1 -38 -13
-7 -13 -18 -17 -36 -14 -39 8 -39 -15 1 -131 30 -86 40 -106 56 -106 12 0 22
9 25 20 4 15 11 19 25 14 24 -7 48 12 48 39 0 16 3 18 12 9 22 -22 39 -14 32
15 -7 27 -6 28 13 10 27 -23 36 -22 27 5 -6 19 -4 21 7 12 16 -13 59 -1 59 16
0 5 11 10 24 10 16 0 26 7 29 21 3 12 10 18 16 15 6 -4 20 -2 32 4 15 9 20 19
16 36 -4 24 -3 24 14 8 19 -18 23 -14 19 21 -1 16 1 18 11 8 17 -17 29 -16 29
2 0 10 10 15 26 15 26 0 74 40 74 61 0 6 4 7 10 4 13 -8 60 24 60 41 0 8 7 14
16 14 12 0 15 6 11 21 -5 19 -4 20 12 5 25 -23 32 -20 25 12 -5 22 -4 25 7 15
19 -19 46 -16 62 7 10 14 20 18 32 13 15 -5 17 -3 12 11 -4 10 -3 15 4 11 14
-9 59 22 59 40 0 10 10 15 29 15 21 0 32 6 36 19 4 12 12 18 21 14 8 -3 14 1
14 10 0 8 8 14 18 13 9 0 16 5 14 12 -1 7 5 12 15 10 12 -2 17 3 15 14 -2 12
3 15 19 11 17 -5 21 -3 16 9 -4 12 3 18 29 22 25 5 34 12 34 26 0 14 5 18 16
13 14 -5 16 -1 12 21 -4 20 -2 24 5 17 17 -17 40 -13 33 5 -3 9 -2 12 5 9 15
-10 69 15 69 31 0 8 5 14 11 14 6 0 9 9 6 20 -4 16 -2 18 13 10 23 -12 56 11
47 34 -5 12 -1 16 14 16 13 0 23 8 26 21 3 11 16 25 29 30 13 4 24 15 24 22 0
8 12 19 26 25 14 7 22 17 19 22 -3 6 5 14 19 20 16 6 26 17 26 30 0 11 5 20
11 20 6 0 9 9 6 20 -4 17 -2 18 15 9 25 -14 33 -6 18 20 -11 22 -4 27 20 11
18 -11 50 15 50 42 0 12 4 16 12 12 7 -5 9 -1 6 13 -4 16 -1 19 13 16 12 -3
22 4 33 25 8 16 25 32 36 35 16 4 20 11 15 26 -4 15 -1 20 17 23 17 2 24 11
26 31 2 18 9 27 22 27 12 0 21 10 25 30 4 17 15 35 26 40 10 6 19 16 19 23 0
14 -148 177 -161 177 -4 0 -13 -10 -20 -21z"/>
<path d="M6501 2111 c-7 -5 -10 -14 -6 -21 4 -6 -1 -17 -11 -24 -10 -8 -15
-20 -11 -30 4 -9 2 -16 -4 -16 -6 0 -7 -4 -4 -10 3 -5 -1 -10 -11 -10 -14 0
-14 -3 -4 -15 11 -13 9 -15 -11 -13 -20 3 -24 -1 -22 -19 2 -15 -3 -23 -12
-23 -9 0 -15 -10 -15 -25 0 -14 -5 -25 -11 -25 -6 0 -9 -8 -7 -18 3 -10 -1
-24 -9 -31 -8 -7 -12 -19 -9 -27 3 -7 -4 -16 -15 -19 -12 -4 -18 -13 -15 -21
3 -8 -4 -23 -16 -33 -13 -13 -18 -26 -14 -38 4 -9 4 -14 0 -10 -9 9 -37 -30
-30 -42 4 -5 -3 -7 -14 -4 -11 3 -21 0 -21 -6 -1 -6 -3 -15 -4 -21 -1 -5 -3
-17 -4 -25 0 -8 -7 -15 -15 -15 -19 0 -47 -56 -39 -77 4 -9 2 -14 -3 -11 -5 3
-19 -5 -32 -18 -12 -13 -20 -24 -17 -24 11 0 -19 -26 -37 -33 -10 -3 -18 -13
-18 -22 0 -8 -4 -15 -10 -15 -5 0 -7 -7 -4 -15 5 -11 2 -13 -11 -9 -15 6 -16
4 -5 -17 12 -21 12 -23 -2 -11 -21 17 -45 6 -52 -23 -3 -13 -15 -27 -26 -30
-15 -5 -19 -12 -15 -26 5 -14 2 -19 -10 -19 -12 0 -16 -6 -12 -20 3 -14 0 -20
-10 -20 -11 0 -14 -7 -11 -25 4 -19 1 -25 -13 -25 -12 0 -19 -7 -19 -19 0 -11
-13 -28 -30 -38 -17 -9 -33 -25 -36 -35 -3 -9 -14 -20 -25 -23 -14 -5 -19 -13
-16 -25 3 -13 0 -17 -9 -13 -17 6 -18 -9 -2 -25 7 -7 8 -12 2 -12 -6 0 -15 5
-22 12 -8 8 -17 5 -36 -13 -14 -13 -26 -30 -26 -36 0 -7 -6 -13 -14 -13 -8 0
-18 -9 -21 -20 -5 -16 -12 -19 -27 -14 -18 5 -20 3 -14 -20 4 -18 2 -26 -7
-26 -7 0 -18 -5 -24 -11 -9 -9 8 -30 65 -85 74 -71 112 -90 112 -59 0 8 9 15
20 15 11 0 23 7 26 15 4 8 12 15 20 15 8 0 11 6 7 17 -4 11 -3 14 5 9 7 -4 24
4 39 18 15 15 33 26 40 26 7 0 13 9 13 20 0 12 7 20 16 20 9 0 18 9 21 19 3
12 11 17 19 14 8 -3 14 1 14 11 0 9 5 16 11 16 6 0 9 6 6 14 -4 10 0 12 14 9
14 -4 22 2 29 24 6 15 20 33 33 38 12 6 22 17 22 25 0 17 24 44 49 53 9 4 16
12 15 19 -3 27 2 37 16 32 11 -5 17 3 21 25 4 17 11 31 16 31 5 0 12 8 15 18
4 9 16 25 26 35 11 9 17 20 14 23 -6 6 16 34 27 34 3 0 17 10 31 22 19 16 22
24 13 35 -8 11 -7 12 6 7 11 -4 16 -1 16 10 0 9 7 16 17 16 9 0 14 3 11 6 -3
3 5 16 19 30 14 14 22 31 20 38 -3 8 1 13 11 12 10 -1 18 8 20 22 2 12 8 22
13 22 5 0 9 11 9 25 0 16 6 25 16 25 11 0 15 6 11 19 -3 12 1 22 9 25 8 3 14
14 14 25 0 11 4 21 9 23 5 2 11 17 13 33 2 17 7 33 12 37 6 4 5 13 -3 22 -11
13 -9 15 16 13 23 -2 28 2 27 21 0 12 4 22 9 22 6 0 7 3 4 7 -4 3 2 12 13 20
11 8 17 20 14 28 -4 10 0 15 11 15 13 0 16 6 12 21 -3 12 0 22 9 26 8 3 14 13
14 23 0 10 7 21 16 24 10 4 13 13 9 25 -3 12 0 21 10 25 29 11 15 24 -72 72
-49 26 -97 53 -108 60 -12 8 -26 10 -34 5z"/>
<path d="M2005 933 c-10 -9 -24 -17 -34 -18 -9 -1 -24 -5 -33 -9 -9 -4 -22 -5
-28 -1 -6 4 -18 1 -26 -6 -18 -15 -141 -39 -161 -32 -7 3 -20 0 -28 -7 -8 -6
-19 -9 -25 -5 -6 4 -17 1 -25 -5 -8 -6 -19 -9 -24 -6 -25 16 -17 -19 23 -109
52 -115 58 -122 88 -108 13 6 26 11 30 12 4 1 20 6 36 10 16 5 36 5 45 -1 10
-5 17 -5 17 0 0 9 94 31 168 39 26 3 42 10 42 18 0 8 8 14 18 14 46 2 62 6 62
15 0 14 -114 216 -122 216 -3 0 -14 -8 -23 -17z"/>
</g>
</svg>
